# xmcd CD database file
# Copyright (C) 1997 Ti Kan
#
# Track frame offsets:
#  150
#  30407
#  45785
#  60555
#  74762
#  91182
#  114825
#  135220
#  154710
#  185040
#  201027
#  216222
#  230837
#  247377
#  271497
#  292787
#
# Disc length: 4160 seconds
#
# Revision: 1
# Processed by: cddbd v1.4b41PL1 Copyright (c) Steve Scherf et al.
# Submitted via: CDWizzard Release:4.20
#
DISCID=e1103e10
DTITLE=LEE PERRY - WITH MAD PROFESSOR- MYSTIC WARRIOR
DYEAR=1900
DGENRE=
TTITLE0=DUD THOSE CRAZY BALDHEADS
TTITLE1=PIRATES (BLACK OLASTIC)
TTITLE2=KUNG FU FIGHTING
TTITLE3=25 YEARS AGO
TTITLE4=MYSTIC WARRIOR
TTITLE5=FEEL THE SPIRIT
TTITLE6=GOOD LUCKY PERRY
TTITLE7=JAZZY LADY
TTITLE8=DUB THEM CRAZY
TTITLE9=BROKEN ANTENNAE
TTITLE10=BLACK ART
TTITLE11=DUB THE PAST
TTITLE12=MYSTIC WARRIOR DUB
TTITLE13=DUB REGGAE SOCA
TTITLE14=DUB IT SCRATCHY DUT IT
TTITLE15=JAZZY DUB
EXTD=
EXTT0=
EXTT1=
EXTT2=
EXTT3=
EXTT4=
EXTT5=
EXTT6=
EXTT7=
EXTT8=
EXTT9=
EXTT10=
EXTT11=
EXTT12=
EXTT13=
EXTT14=
EXTT15=
PLAYORDER=
